<?xml version="1.0" standalone="no"?>
<!DOCTYPE svg PUBLIC "-//W3C//DTD SVG 20010904//EN"
 "http://www.w3.org/TR/2001/REC-SVG-20010904/DTD/svg10.dtd">
<svg version="1.0" xmlns="http://www.w3.org/2000/svg"
 width="616.000000pt" height="375.000000pt" viewBox="0 0 616.000000 375.000000"
 preserveAspectRatio="xMidYMid meet">

<g transform="translate(0.000000,375.000000) scale(0.100000,-0.100000)"
fill="#000000" stroke="none">
<path d="M3629 2373 c-13 -16 -12 -17 4 -4 16 13 21 21 13 21 -2 0 -10 -8 -17
-17z"/>
<path d="M2005 1941 c-102 -25 -158 -112 -136 -210 22 -97 143 -166 222 -126
23 12 34 14 37 6 2 -6 19 -11 38 -11 l34 0 -2 98 -3 97 -80 0 -79 0 -2 -32
c-2 -32 0 -33 36 -33 20 0 39 -2 42 -5 8 -9 -3 -55 -14 -55 -5 0 -7 4 -4 9 3
5 -8 6 -27 2 -106 -24 -161 111 -69 171 22 15 43 22 52 18 8 -4 25 -12 37 -18
31 -16 44 -15 73 7 29 23 20 39 -37 66 -43 21 -78 25 -118 16z m46 -30 c-8 -5
-9 -11 -3 -15 5 -3 12 1 16 9 7 20 42 19 50 -1 13 -34 -19 -44 -64 -19 -16 9
-29 10 -36 4 -7 -5 -21 -12 -33 -14 -17 -3 -19 -1 -9 14 6 10 22 19 35 19 14
0 29 4 36 11 6 6 13 8 16 5 3 -3 -1 -9 -8 -13z m86 -43 c-3 -8 -6 -5 -6 6 -1
11 2 17 5 13 3 -3 4 -12 1 -19z m-213 -96 c-5 -4 -12 -11 -15 -15 -3 -5 -9 -2
-12 5 -3 9 3 14 15 15 11 1 16 -1 12 -5z m196 -3 c0 -4 -7 -10 -16 -13 -8 -3
-13 -2 -9 3 3 5 -1 11 -7 14 -7 3 -3 4 10 4 12 -1 22 -4 22 -8z m30 0 c0 -6 6
-9 14 -6 10 4 13 -6 12 -46 -1 -41 -6 -56 -24 -71 -13 -10 -26 -16 -29 -12 -3
3 -14 1 -24 -4 -12 -7 -20 -6 -25 1 -5 9 -11 7 -20 -5 -9 -13 -19 -16 -36 -10
-13 4 -26 7 -30 6 -14 -4 -8 25 7 38 8 7 15 8 15 2 0 -5 11 -9 25 -9 14 0 25
4 25 9 0 5 9 4 21 -2 34 -19 60 29 36 67 -4 7 -2 21 5 33 14 22 28 27 28 9z
m-194 -74 c29 -27 30 -31 3 -38 -13 -4 -19 -1 -16 6 6 17 -20 41 -27 24 -3 -7
-4 -3 -3 8 1 12 -3 19 -10 18 -7 -2 -13 1 -13 6 0 13 34 19 39 7 2 -5 14 -19
27 -31z"/>
<path d="M2332 1928 c-65 -31 -97 -85 -97 -163 0 -51 4 -67 27 -97 31 -40 77
-65 136 -72 87 -12 193 80 192 167 -1 30 -1 31 -15 13 -15 -19 -15 -19 -15 2
0 12 5 22 10 22 17 0 11 32 -12 65 -51 75 -145 101 -226 63z m33 -35 c-7 -28
-31 -52 -52 -53 -7 0 -10 -7 -7 -15 7 -18 -7 -20 -25 -2 -8 6 -6 0 3 -14 14
-22 14 -26 1 -26 -8 0 -15 4 -15 9 0 5 -5 6 -10 3 -13 -8 -8 21 10 58 7 15 19
27 27 27 7 0 16 7 19 15 4 8 10 15 16 15 5 0 7 -4 3 -9 -3 -5 -1 -12 5 -16 9
-6 14 7 11 28 0 4 4 7 10 7 7 0 9 -10 4 -27z m50 17 c-3 -5 -1 -10 6 -10 7 0
10 -3 6 -6 -9 -9 -28 6 -22 17 4 5 8 9 11 9 3 0 2 -4 -1 -10z m92 -17 c-4 -3
-2 -12 4 -19 8 -10 6 -13 -9 -11 -16 1 -19 5 -11 19 5 10 13 18 16 18 3 0 3
-3 0 -7z m-39 -48 c12 -9 26 -30 30 -48 17 -61 -26 -116 -91 -117 -53 0 -87
35 -87 90 0 55 34 90 87 90 21 0 48 -7 61 -15z m78 -48 c1 -9 -2 -17 -8 -17
-6 0 -8 6 -5 14 3 8 2 17 -4 20 -5 2 -4 3 2 2 7 -1 13 -10 15 -19z m-240 -56
c4 -14 14 -32 23 -39 13 -10 13 -14 2 -21 -17 -11 0 -22 26 -17 26 5 46 -8 50
-33 4 -29 -13 -26 -21 3 -4 18 -11 23 -26 19 -11 -3 -18 -9 -15 -13 3 -5 -9
-3 -26 3 -37 15 -77 73 -60 90 13 13 15 31 2 22 -5 -3 -12 -2 -15 3 -3 5 8 8
25 8 24 0 31 -5 35 -25z m237 -12 c4 -15 0 -23 -14 -26 -20 -6 -27 -23 -8 -23
5 0 7 -4 4 -10 -4 -6 -13 -5 -25 2 -19 12 -19 13 8 35 15 12 22 22 15 23 -7 0
-10 7 -7 15 8 19 20 12 27 -16z m-69 -71 c-5 -8 -2 -9 9 -5 22 8 22 -7 0 -24
-13 -11 -17 -11 -20 -1 -3 6 -9 12 -14 12 -4 0 -6 -6 -3 -13 3 -8 -1 -14 -8
-14 -7 0 -14 12 -15 25 0 16 2 20 7 13 6 -10 11 -9 21 3 16 18 34 21 23 4z"/>
<path d="M3975 1934 c-71 -24 -97 -93 -55 -146 19 -25 117 -74 127 -64 3 3 12
-1 19 -9 40 -39 -20 -69 -68 -34 -34 24 -98 26 -98 3 0 -24 18 -52 41 -64 19
-11 31 -14 87 -26 34 -7 96 13 119 38 60 67 24 132 -100 183 -29 11 -53 29
-57 40 -7 19 -4 20 34 18 27 -1 47 -9 58 -23 20 -24 88 -29 88 -5 0 73 -104
121 -195 89z m73 -17 c7 -5 12 -3 12 5 0 10 2 10 9 -1 5 -8 17 -16 26 -17 18
-3 44 -32 44 -49 1 -5 -8 1 -19 15 -14 17 -20 20 -21 10 0 -10 -2 -11 -6 -3
-3 8 -14 11 -29 7 -13 -3 -24 -2 -24 4 0 5 -11 7 -24 5 -23 -5 -42 10 -32 25
6 10 47 9 64 -1z m-80 -38 c-11 -7 -11 -9 0 -9 7 0 11 -4 8 -8 -7 -12 29 -63
39 -55 4 5 5 0 2 -9 -5 -15 -2 -16 18 -8 19 7 25 6 25 -4 0 -10 7 -12 22 -8
15 3 19 2 14 -7 -10 -16 13 -43 31 -37 13 5 15 -2 15 -44 0 -33 -2 -40 -9 -39
-5 1 -15 1 -23 0 -13 -1 -13 -2 0 -11 9 -6 10 -10 3 -10 -6 0 -15 5 -19 11 -4
8 -9 7 -15 -2 -7 -11 -9 -11 -9 -1 0 7 6 15 14 18 30 11 3 84 -31 84 -7 0 -16
6 -19 14 -3 8 -15 11 -31 8 -18 -3 -24 -1 -19 6 5 8 2 10 -8 6 -11 -4 -16 0
-16 10 0 9 -6 16 -14 16 -28 0 -34 54 -10 88 13 19 19 21 30 11 12 -10 12 -14
2 -20z m18 -256 c-10 -10 -19 5 -10 18 6 11 8 11 12 0 2 -7 1 -15 -2 -18z m68
11 c20 -19 20 -21 1 -21 -8 0 -15 7 -15 15 0 8 -6 12 -15 8 -8 -3 -15 -1 -15
4 0 15 27 12 44 -6z"/>
<path d="M4000 1906 c4 -4 16 -4 26 2 16 9 14 10 -8 9 -15 -1 -23 -6 -18 -11z"/>
<path d="M3981 1804 c0 -11 3 -14 6 -6 3 7 2 16 -1 19 -3 4 -6 -2 -5 -13z"/>
<path d="M4332 1937 c-165 -46 -175 -267 -14 -327 66 -25 105 -21 163 16 46
29 65 55 77 111 11 47 5 61 -14 35 -7 -9 -14 -12 -14 -5 0 6 7 18 15 27 12 11
13 21 5 41 -6 16 -14 23 -22 19 -7 -5 -8 -3 -4 5 11 17 -21 50 -69 72 -46 21
-63 22 -123 6z m78 -13 c0 -8 -19 -13 -24 -6 -3 5 1 9 9 9 8 0 15 -2 15 -3z
m-61 -22 c8 -14 6 -19 -5 -19 -7 0 -14 9 -14 19 0 10 2 18 5 18 2 0 9 -8 14
-18z m-33 -1 c-3 -5 1 -14 9 -21 14 -11 12 -15 -15 -28 -16 -8 -30 -21 -30
-29 0 -10 -6 -13 -17 -9 -15 6 -15 5 1 -13 18 -19 17 -20 -2 -18 -11 0 -19 4
-16 8 2 4 -1 9 -7 11 -6 2 -8 14 -4 31 6 22 11 26 29 22 16 -5 18 -4 7 4 -13
8 -11 13 10 30 25 21 44 28 35 12z m170 -19 c0 -10 -8 -19 -19 -19 -15 -2 -16
1 -7 12 6 8 9 19 5 24 -3 6 0 9 7 6 8 -3 14 -13 14 -23z m-20 -73 c19 -38 12
-72 -21 -105 -35 -35 -97 -33 -130 2 -14 15 -25 21 -25 15 0 -7 10 -21 21 -30
16 -12 20 -23 15 -39 -7 -21 -9 -21 -36 -7 -15 8 -37 26 -48 40 -17 22 -18 30
-9 55 6 17 18 30 25 30 8 0 12 -6 9 -13 -3 -8 1 -14 9 -14 9 0 14 12 14 32 0
39 39 82 78 87 38 5 79 -17 98 -53z m56 -11 c-2 -10 -8 -18 -13 -18 -4 0 -7 8
-6 18 0 10 6 19 13 19 6 0 9 -9 6 -19z m-295 -50 c-3 -7 -5 -2 -5 12 0 14 2
19 5 13 2 -7 2 -19 0 -25z m288 -8 c4 -12 11 -17 18 -13 7 4 6 -1 -2 -10 -17
-21 -45 -23 -37 -2 3 8 1 15 -4 15 -5 0 -7 7 -4 15 8 21 21 19 29 -5z m-41
-91 c-20 -21 -29 -25 -39 -16 -15 14 -8 37 12 37 8 0 11 -4 8 -10 -4 -6 1 -7
11 -3 16 6 16 7 0 19 -13 9 -14 13 -4 17 7 2 19 0 26 -6 10 -8 7 -16 -14 -38z
m-99 -9 c-3 -4 2 -11 11 -14 12 -5 14 -1 8 17 -7 22 -6 22 15 3 29 -26 27 -32
-14 -33 -19 0 -32 3 -30 7 3 5 1 11 -5 15 -6 4 -8 11 -4 16 3 5 10 7 15 3 5
-3 7 -9 4 -14z"/>
<path d="M4300 1670 c0 -5 5 -10 10 -10 6 0 10 5 10 10 0 6 -4 10 -10 10 -5 0
-10 -4 -10 -10z"/>
<path d="M2599 1938 c0 -2 -1 -19 -2 -38 l-2 -35 54 -5 54 -5 1 -125 1 -125
42 -3 42 -3 3 128 3 128 50 5 c50 5 50 5 53 43 l3 37 -150 0 c-83 0 -151 -1
-152 -2z m152 -18 c40 0 46 -22 22 -79 -15 -36 -17 -53 -10 -75 7 -21 6 -30
-3 -36 -15 -9 -40 -2 -40 12 0 5 5 6 10 3 6 -4 10 8 10 30 0 23 -6 38 -15 41
-11 5 -13 10 -5 19 7 8 5 17 -8 29 -10 9 -22 13 -25 9 -4 -3 -7 -1 -7 5 0 7 7
12 15 12 8 0 15 5 15 10 0 7 -8 6 -22 -2 -13 -7 -26 -11 -30 -10 -5 1 -8 -2
-8 -8 0 -5 -5 -10 -11 -10 -6 0 -8 7 -5 16 3 8 2 12 -4 9 -6 -3 -10 -1 -10 4
0 10 13 14 53 14 9 0 17 4 17 9 0 6 7 7 16 4 9 -3 29 -6 45 -6z m69 -12 c0 -7
-5 -20 -10 -28 -8 -11 -9 -9 -8 13 2 26 18 40 18 15z m25 2 c-3 -5 -1 -10 4
-10 6 0 11 -4 11 -10 0 -5 -9 -10 -19 -10 -14 0 -18 5 -14 20 3 11 10 20 15
20 5 0 6 -4 3 -10z m-105 -200 c0 -5 7 -7 15 -4 8 4 15 1 15 -6 0 -6 -4 -8
-10 -5 -5 3 -10 4 -10 1 0 -2 -3 -12 -7 -22 -5 -13 -3 -16 8 -12 10 4 15 -1
17 -15 1 -17 -1 -19 -8 -7 -8 13 -10 12 -10 -2 0 -10 -5 -18 -11 -18 -6 0 -8
9 -4 21 4 13 3 19 -2 16 -5 -4 -10 0 -10 8 0 8 4 15 9 15 4 0 8 5 8 11 0 5 -4
7 -10 4 -5 -3 -10 1 -10 9 0 9 5 16 10 16 6 0 10 -4 10 -10z"/>
<path d="M2749 1883 c-13 -17 -13 -17 6 -3 11 8 22 16 24 17 2 2 0 3 -6 3 -6
0 -17 -8 -24 -17z"/>
<path d="M2951 1918 c-5 -13 -34 -87 -65 -165 -31 -78 -56 -144 -56 -147 0 -3
17 -6 39 -6 30 0 42 5 55 25 15 22 23 25 81 25 60 0 66 -2 77 -25 9 -21 18
-25 55 -25 23 0 43 5 43 10 0 6 -20 56 -43 113 -24 56 -54 128 -67 160 l-24
57 -43 0 c-36 0 -45 -4 -52 -22z m70 -17 c-18 -12 -5 -32 15 -24 14 5 15 3 5
-16 -7 -12 -9 -26 -6 -31 3 -5 1 -11 -4 -14 -5 -3 -12 10 -15 30 -6 29 -10 33
-21 24 -11 -9 -14 -7 -12 9 0 11 4 18 8 15 4 -2 10 0 14 6 3 5 12 10 18 10 8
0 7 -3 -2 -9z m-55 -46 c-4 -12 -2 -13 13 -6 21 12 31 5 31 -20 0 -22 37 -44
65 -40 11 2 17 0 13 -5 -4 -4 -3 -13 3 -21 9 -10 8 -13 -2 -13 -10 -1 -8 -4 4
-11 9 -5 17 -15 17 -21 0 -6 6 -19 14 -27 17 -19 25 -50 12 -49 -5 0 -13 -6
-17 -14 -7 -10 -9 -9 -9 5 0 10 -4 16 -9 13 -5 -3 -11 1 -15 9 -3 8 -12 12
-20 9 -8 -3 -17 -1 -21 5 -4 8 -12 8 -25 1 -20 -11 -33 -1 -22 16 4 6 17 17
30 26 23 16 23 16 -10 13 -38 -3 -63 12 -49 29 6 6 15 24 20 39 11 27 11 27
-14 11 -27 -18 -33 -34 -12 -35 6 0 4 -4 -6 -7 -17 -7 -16 -9 3 -30 12 -12 25
-20 31 -17 5 4 9 2 9 -2 0 -15 -23 -33 -42 -33 -10 0 -18 -4 -18 -10 0 -5 -5
-10 -11 -10 -6 0 -9 9 -6 20 3 11 1 18 -3 15 -5 -3 -10 1 -13 7 -3 7 -4 -3 -3
-22 1 -26 -3 -35 -18 -38 -13 -3 -16 0 -10 9 4 7 8 24 9 37 0 13 9 28 19 34
13 7 16 17 12 36 -3 15 -3 21 0 14 8 -18 24 -4 17 15 -5 12 -3 14 6 8 10 -5
11 -2 7 13 -4 12 -2 30 4 42 12 23 25 27 16 5z m94 -15 c0 -5 -4 -10 -10 -10
-5 0 -10 5 -10 10 0 6 5 10 10 10 6 0 10 -4 10 -10z m8 -31 c-2 -6 -8 -10 -13
-10 -5 0 -11 4 -13 10 -2 6 4 11 13 11 9 0 15 -5 13 -11z"/>
<path d="M2925 1720 c-3 -6 1 -7 9 -4 18 7 21 14 7 14 -6 0 -13 -4 -16 -10z"/>
<path d="M3081 1694 c0 -11 3 -14 6 -6 3 7 2 16 -1 19 -3 4 -6 -2 -5 -13z"/>
<path d="M3121 1664 c0 -11 3 -14 6 -6 3 7 2 16 -1 19 -3 4 -6 -2 -5 -13z"/>
<path d="M3309 1938 c-9 -32 -7 -48 8 -48 9 0 13 3 10 7 -4 3 0 15 10 25 15
17 15 18 -5 18 -12 0 -22 -1 -23 -2z"/>
<path d="M3370 1929 c11 -8 12 -12 3 -16 -7 -2 -13 -9 -13 -15 0 -6 8 -4 18 4
20 18 124 17 130 -1 2 -6 11 -11 20 -11 24 -1 53 -25 50 -41 -2 -8 2 -13 8
-12 6 1 11 -3 12 -10 0 -7 4 -23 7 -37 5 -19 4 -21 -4 -10 -12 18 -24 9 -15
-13 9 -25 34 -8 34 25 0 43 -27 95 -63 120 -25 18 -47 23 -117 25 -62 2 -81 0
-70 -8z"/>
<path d="M3660 1903 c0 -21 3 -55 6 -75 6 -32 11 -38 31 -38 28 0 30 5 36 88
l5 62 -39 0 c-38 0 -39 -1 -39 -37z m44 -8 c-4 -8 -10 -15 -15 -15 -4 0 -6 7
-3 15 4 8 10 15 15 15 4 0 6 -7 3 -15z"/>
<path d="M4602 1770 l2 -170 123 0 123 0 0 40 0 39 -77 3 -78 3 -3 128 -3 127
-45 0 -44 0 2 -170z m46 73 c0 -10 3 -27 5 -38 16 -60 18 -83 8 -90 -8 -4 -3
-13 14 -27 14 -10 25 -27 24 -36 0 -12 -3 -11 -9 6 -11 26 -18 29 -16 5 0 -10
-5 -17 -13 -15 -7 1 -19 -3 -27 -9 -11 -9 -14 -7 -15 10 -4 62 -2 71 19 72 15
1 15 2 0 6 -26 7 -18 131 9 133 1 0 2 -8 1 -17z m22 -3 c0 -5 -5 -10 -11 -10
-5 0 -7 5 -4 10 3 6 8 10 11 10 2 0 4 -4 4 -10z m160 -200 c0 -5 -7 -7 -15 -4
-8 4 -15 8 -15 10 0 2 7 4 15 4 8 0 15 -4 15 -10z m-140 -14 c0 -11 -19 -15
-25 -6 -3 5 1 10 9 10 9 0 16 -2 16 -4z"/>
<path d="M3463 1886 c4 -11 -3 -16 -26 -19 -27 -3 -26 -4 10 -5 68 -3 102 -55
81 -128 -11 -41 -36 -56 -91 -54 -58 3 -60 2 -43 -15 16 -16 31 -20 22 -6 -3
5 7 9 22 9 68 0 86 8 98 43 8 24 17 33 30 32 16 -1 17 0 4 10 -20 16 -23 60
-4 53 8 -3 14 1 14 9 0 7 -13 16 -28 20 -16 3 -43 19 -62 36 -18 17 -30 24
-27 15z"/>
<path d="M3303 1781 c-1 -78 2 -101 14 -105 8 -3 11 -1 8 5 -4 5 -2 16 5 24 7
9 8 15 0 20 -20 12 -10 35 15 35 23 0 31 -13 26 -42 0 -5 4 -8 9 -8 6 0 10 31
10 72 0 71 -15 87 -22 23 -2 -22 -9 -31 -25 -33 -27 -4 -33 25 -8 35 14 5 14
8 -2 26 -18 20 -17 20 5 14 23 -5 23 -5 6 14 -33 37 -40 24 -41 -80z"/>
<path d="M3601 1723 c-1 -16 -6 -21 -16 -17 -11 5 -15 -1 -15 -18 0 -13 -5
-29 -10 -34 -7 -7 -6 -11 5 -11 8 0 18 10 21 21 4 12 11 24 16 27 5 4 8 17 5
30 -4 23 -4 23 -6 2z"/>
<path d="M3302 1633 c3 -28 4 -28 83 -31 44 -2 95 0 113 3 53 10 26 25 -33 19
-42 -4 -55 -3 -55 8 0 8 -3 9 -8 2 -4 -5 -24 -11 -44 -11 -34 -1 -43 6 -39 30
0 4 -4 7 -10 7 -6 0 -9 -12 -7 -27z"/>
<path d="M3430 1640 c0 -5 4 -10 9 -10 6 0 13 5 16 10 3 6 -1 10 -9 10 -9 0
-16 -4 -16 -10z"/>
<path d="M2034 1479 c-18 -5 -48 -27 -67 -48 -78 -86 -46 -185 39 -119 23 19
27 20 21 5 -4 -11 -1 -20 8 -23 18 -7 65 21 65 38 0 6 -10 2 -23 -10 -47 -45
-49 -18 -6 80 25 57 28 72 17 79 -15 10 -13 10 -54 -2z m38 -50 c-24 -58 -94
-134 -115 -126 -28 11 -30 34 -7 81 23 50 71 86 112 86 l27 0 -17 -41z"/>
<path d="M2252 1468 c-19 -25 -62 -125 -62 -146 0 -32 19 -37 45 -12 24 22 24
22 18 1 -7 -26 13 -28 39 -4 17 15 18 15 18 0 0 -27 16 -20 56 23 21 22 46 40
56 40 31 0 17 -33 -21 -51 -21 -10 -30 -19 -23 -23 26 -16 80 39 68 70 -10 25
-39 15 -84 -28 -47 -46 -48 -44 -27 29 6 17 5 17 -7 -1 -51 -74 -81 -87 -54
-22 8 20 13 36 11 36 -2 0 -22 -19 -44 -42 -35 -37 -41 -40 -41 -22 0 12 18
48 40 80 39 58 49 84 31 84 -5 0 -13 -6 -19 -12z m18 -7 c0 -5 -9 -19 -20 -32
l-21 -24 16 33 c15 31 25 41 25 23z"/>
<path d="M2981 1456 c-6 -13 -28 -67 -50 -120 -43 -100 -50 -136 -27 -136 24
0 39 28 33 64 -5 30 -3 35 18 39 13 2 29 -1 35 -7 7 -7 16 -7 30 2 12 7 20 8
20 2 0 -17 22 -11 47 12 17 16 22 18 18 6 -12 -30 16 -31 47 -2 19 18 29 23
28 14 -4 -28 0 -40 14 -40 8 0 18 5 22 12 5 8 2 9 -9 5 -13 -5 -17 -1 -17 17
0 38 10 56 34 57 15 1 16 3 5 6 -11 3 -15 12 -13 26 l5 22 -12 -22 c-7 -13
-19 -23 -28 -23 -13 0 -13 -2 -3 -9 11 -6 7 -16 -18 -45 -18 -20 -36 -34 -41
-31 -12 8 5 46 46 106 39 57 42 69 19 69 -9 0 -26 -25 -44 -62 -30 -67 -90
-136 -90 -105 0 10 7 28 16 41 33 51 -32 40 -79 -13 -15 -17 -34 -31 -42 -31
-14 0 -14 3 0 28 9 15 31 47 51 71 36 45 39 64 11 69 -11 2 -21 -6 -26 -22z
m18 -26 c-12 -22 -24 -38 -26 -36 -8 7 26 76 37 76 6 0 2 -17 -11 -40z m175
10 c-10 -16 -20 -27 -22 -25 -5 5 26 55 34 55 3 0 -3 -13 -12 -30z m-129 -99
c-8 -17 -17 -31 -19 -31 -3 0 -11 -3 -20 -6 -28 -11 -18 23 15 51 38 31 46 27
24 -14z m-115 -83 c0 -27 -16 -55 -25 -46 -9 9 5 68 16 68 5 0 9 -10 9 -22z"/>
<path d="M4275 1420 c-10 -22 -20 -38 -23 -36 -10 10 -63 -26 -74 -50 -15 -33
3 -54 31 -37 14 9 21 9 30 0 8 -8 17 -5 35 12 24 23 25 23 19 2 -8 -32 15 -26
50 14 39 45 66 48 41 5 -21 -35 -12 -50 19 -31 15 10 22 10 25 2 5 -14 35 -14
49 0 9 9 18 4 38 -15 27 -27 27 -27 6 -33 -12 -3 -21 -10 -21 -15 0 -6 10 -4
23 5 12 8 21 23 20 33 -2 22 17 36 32 25 15 -12 78 -10 93 2 10 8 16 7 22 -4
8 -11 13 -12 30 -1 11 6 26 12 34 12 7 0 20 8 27 18 11 14 11 15 -1 5 -21 -20
-32 -15 -20 8 8 15 8 24 0 34 -16 19 -39 8 -82 -39 -33 -36 -37 -38 -38 -19 0
12 5 25 10 28 6 3 10 14 10 23 0 10 -8 3 -21 -18 -12 -19 -27 -38 -33 -42 -38
-25 -34 13 5 46 17 14 25 26 18 26 -7 0 -32 -19 -55 -41 -28 -28 -48 -40 -59
-36 -14 6 -14 9 0 38 10 19 22 29 31 25 8 -3 14 -1 14 4 0 21 -26 8 -62 -31
-35 -39 -57 -46 -65 -22 -2 6 10 16 27 23 30 12 39 33 20 45 -10 6 -33 -15
-63 -59 -25 -36 -41 -33 -22 4 13 24 13 33 3 44 -11 11 -19 6 -52 -31 -21 -24
-40 -42 -43 -40 -2 3 3 22 12 43 l16 39 -46 -45 c-25 -24 -45 -41 -45 -36 0 4
14 39 31 78 17 38 29 72 26 74 -2 2 -12 -14 -22 -36z m-25 -59 c0 -6 -11 -23
-24 -38 -18 -20 -28 -25 -36 -17 -8 8 -5 18 10 37 21 26 50 36 50 18z m225 -1
c-3 -5 -11 -10 -16 -10 -6 0 -7 5 -4 10 3 6 11 10 16 10 6 0 7 -4 4 -10z m250
-22 c0 -32 -17 -48 -30 -28 -5 9 18 60 28 60 1 0 2 -14 2 -32z m21 -5 c-11
-11 -17 4 -9 23 7 18 8 18 11 1 2 -10 1 -21 -2 -24z"/>
<path d="M4645 1411 c-3 -5 4 -13 16 -16 28 -9 33 -2 9 13 -11 6 -21 8 -25 3z"/>
<path d="M2573 1355 c-37 -37 -39 -60 -4 -59 14 0 23 -7 27 -22 7 -27 -3 -64
-18 -64 -6 0 -7 7 -3 18 14 34 15 56 1 27 -19 -39 -20 -55 -1 -55 18 0 35 31
35 63 0 13 12 34 26 48 23 21 25 22 22 5 -4 -25 16 -31 36 -11 14 15 16 15 16
1 0 -18 25 -22 35 -6 5 8 11 7 20 0 17 -14 47 -6 70 20 24 27 7 25 -22 -2 -19
-18 -25 -19 -36 -9 -9 11 -9 14 0 18 7 3 23 13 35 23 18 15 20 21 11 31 -10
10 -22 2 -58 -37 -48 -53 -53 -53 -31 1 8 19 11 35 5 35 -5 0 -9 -4 -9 -9 0
-13 -50 -71 -61 -71 -5 0 -2 16 6 37 8 20 14 38 12 40 -2 1 -18 -15 -36 -38
-38 -47 -47 -46 -27 3 25 59 1 65 -51 13z m47 6 c0 -13 -40 -61 -51 -61 -15 0
-10 32 8 52 17 19 43 24 43 9z m200 4 c0 -2 -10 -10 -22 -16 -21 -11 -22 -11
-9 4 13 16 31 23 31 12z"/>
<path d="M3254 1357 c-25 -22 -33 -37 -29 -49 6 -16 30 -18 97 -9 4 1 13 11
19 24 11 22 11 22 -15 -2 -32 -30 -42 -22 -22 18 32 61 7 70 -50 18z m46 4 c0
-13 -40 -61 -51 -61 -16 0 -10 29 11 50 21 21 40 26 40 11z"/>
<path d="M3451 1367 c-25 -27 -28 -65 -5 -74 10 -4 31 10 61 38 36 35 44 39
39 22 -17 -62 -16 -65 9 -25 14 23 30 42 36 42 12 0 12 -47 -1 -55 -5 -3 -10
-10 -10 -16 0 -5 5 -9 10 -9 6 0 10 6 10 14 0 16 45 66 59 66 6 0 4 -15 -4
-34 -19 -44 -3 -57 31 -25 13 12 22 25 19 27 -2 3 -13 -6 -24 -19 -22 -26 -27
-15 -11 26 13 33 -12 45 -40 20 -18 -16 -20 -17 -20 -2 0 20 -21 22 -38 5 -9
-9 -12 -9 -12 0 0 21 -16 13 -58 -28 -22 -22 -45 -40 -51 -40 -21 0 -11 27 14
38 25 11 33 36 16 46 -4 3 -18 -5 -30 -17z m19 -12 c-7 -9 -15 -13 -17 -11 -7
7 7 26 19 26 6 0 6 -6 -2 -15z"/>
<path d="M3990 1344 c-51 -48 -62 -46 -35 6 9 17 11 30 5 30 -5 0 -10 -4 -10
-8 0 -14 -58 -77 -65 -71 -3 4 1 24 9 45 l16 39 -34 -37 c-18 -21 -36 -38 -40
-38 -3 0 -6 16 -6 37 0 35 0 36 -20 18 -23 -21 -28 -44 -5 -25 13 11 15 8 15
-15 0 -24 -3 -27 -25 -23 -13 3 -22 1 -19 -3 8 -14 48 -10 72 7 20 14 22 14
22 0 0 -21 19 -20 42 1 17 15 18 15 18 0 0 -20 11 -22 28 -5 10 10 15 10 20 1
6 -10 41 -12 94 -4 4 1 13 11 19 24 11 22 11 22 -15 -2 -33 -31 -42 -22 -21
18 16 31 13 51 -6 51 -5 0 -32 -21 -59 -46z m60 17 c0 -13 -40 -61 -51 -61
-15 0 -10 32 8 52 17 19 43 24 43 9z"/>
<path d="M2401 1280 c-47 -42 -62 -62 -58 -75 10 -23 28 -15 54 26 12 19 34
49 49 67 42 52 24 45 -45 -18z m-13 -45 c-6 -14 -18 -25 -26 -25 -12 0 -10 6
8 25 13 14 25 25 27 25 1 0 -3 -11 -9 -25z"/>
</g>
</svg>
