<?xml version="1.0" standalone="no"?>
<!DOCTYPE svg PUBLIC "-//W3C//DTD SVG 20010904//EN"
 "http://www.w3.org/TR/2001/REC-SVG-20010904/DTD/svg10.dtd">
<svg version="1.0" xmlns="http://www.w3.org/2000/svg"
 width="2000.000000pt" height="2000.000000pt" viewBox="0 0 2000.000000 2000.000000"
 preserveAspectRatio="xMidYMid meet">

<g transform="translate(0.000000,2000.000000) scale(0.100000,-0.100000)"
fill="#000000" stroke="none">
<path d="M9650 15643 c-680 -38 -1267 -189 -1855 -478 -1311 -645 -2235 -1847
-2524 -3280 -281 -1401 100 -2868 1030 -3960 707 -832 1686 -1388 2769 -1574
502 -86 1056 -86 1575 0 1480 246 2761 1210 3421 2574 611 1263 629 2715 48
3986 -232 508 -548 962 -948 1362 -744 744 -1714 1215 -2761 1341 -243 30
-542 41 -755 29z m705 -242 c1015 -121 1905 -544 2629 -1250 810 -791 1294
-1882 1334 -3009 38 -1059 -274 -2047 -910 -2883 -134 -176 -339 -409 -360
-409 -4 0 -8 906 -8 2013 l0 2013 -1567 1047 c-1229 821 -1569 1044 -1571
1030 -2 -12 -558 -388 -1567 -1058 l-1564 -1040 -1 -2047 c0 -1127 -3 -2048
-8 -2048 -10 0 -201 195 -284 290 -163 188 -364 471 -493 694 -576 1003 -739
2196 -453 3316 245 962 791 1799 1578 2421 658 520 1506 856 2343 929 67 6
140 12 162 14 110 11 579 -4 740 -23z m-383 -2509 c46 -32 577 -390 1181 -797
l1097 -739 0 -1878 0 -1878 268 0 267 -1 -49 -45 c-27 -25 -95 -80 -150 -123
-1006 -774 -2286 -1084 -3531 -856 -707 129 -1369 427 -1948 877 l-132 103
267 3 268 2 2 1902 3 1902 1180 793 c649 436 1183 793 1187 793 4 0 45 -26 90
-58z"/>
<path d="M8610 10210 l0 -480 480 0 480 0 0 480 0 480 -480 0 -480 0 0 -480z"/>
<path d="M9842 10213 l3 -478 483 -3 482 -2 0 480 0 480 -485 0 -485 0 2 -477z"/>
<path d="M8610 8980 l0 -480 480 0 480 0 0 480 0 480 -480 0 -480 0 0 -480z"/>
<path d="M9842 8983 l3 -478 483 -3 482 -2 0 480 0 480 -485 0 -485 0 2 -477z"/>
</g>
</svg>
